<svg width="48" height="35" viewBox="0 0 48 35" fill="none" xmlns="http://www.w3.org/2000/svg">
<g clip-path="url(#clip0)">
<path d="M47.3393 13.6354C47.3393 12.6846 47.259 11.4444 47.0983 9.95609C46.9778 8.46781 46.777 7.14489 46.536 5.98734C46.2549 4.66443 45.6524 3.58956 44.7286 2.68005C43.8049 1.77055 42.7204 1.27445 41.4753 1.10909C37.6195 0.654337 31.7556 0.447632 23.9235 0.447632C16.0915 0.447632 10.2275 0.654337 6.37169 1.10909C5.12659 1.27445 4.04216 1.77055 3.11838 2.68005C2.1946 3.58956 1.59213 4.66443 1.31098 5.98734C1.02983 7.14489 0.869173 8.46781 0.708515 9.95609C0.588022 11.4444 0.507694 12.6846 0.467529 13.6354C0.467529 14.6276 0.467529 15.9506 0.467529 17.6869C0.467529 19.4232 0.467529 20.7461 0.507694 21.7383C0.507694 22.6892 0.588022 23.9294 0.74868 25.4177C0.829008 26.906 1.02983 28.2289 1.27082 29.3864C1.55197 30.7093 2.15443 31.7842 3.07821 32.6937C4.00199 33.6032 5.08643 34.0993 6.33152 34.2647C10.1873 34.7194 16.0513 34.9261 23.8833 34.9261C31.7154 34.9261 37.5794 34.7194 41.4352 34.2647C42.6803 34.1406 43.7647 33.6032 44.6885 32.6937C45.6123 31.7842 46.2147 30.7093 46.4959 29.3864C46.777 28.2289 46.9377 26.906 47.0983 25.4177C47.2188 23.9294 47.2992 22.6892 47.3393 21.7383C47.3393 20.7875 47.3795 19.4232 47.3795 17.6869C47.3795 15.9506 47.3795 14.6276 47.3393 13.6354ZM33.2015 19.1338L19.7866 27.7741C19.5456 27.9395 19.2644 28.0635 18.903 28.0635C18.6218 28.0635 18.3808 27.9808 18.0997 27.8568C17.5374 27.5261 17.2161 27.03 17.2161 26.3272V9.08793C17.2161 8.38513 17.4972 7.88903 18.0997 7.5583C18.7021 7.22758 19.2644 7.26892 19.7866 7.59965L26.494 11.9198L33.2015 16.2399C33.7236 16.5293 34.0048 17.0254 34.0048 17.6869C33.9646 18.3483 33.7236 18.8444 33.2015 19.1338Z" fill="#FFC26B"/>
</g>
<defs>
<clipPath id="clip0">
<rect width="46.912" height="34.4785" fill="white" transform="translate(0.467529 0.447632)"/>
</clipPath>
</defs>
</svg>
