<svg width="39" height="38" viewBox="0 0 39 38" fill="none" xmlns="http://www.w3.org/2000/svg">
<g clip-path="url(#clip0)">
<path d="M9.06007 12.325H0.786194V37.9262H9.06007V12.325Z" fill="#FFC26B"/>
<path d="M36.2309 14.6631C34.4992 12.7212 32.1902 11.7305 29.3424 11.7305C28.3034 11.7305 27.3413 11.8494 26.4562 12.1268C25.6096 12.4042 24.8784 12.7609 24.2626 13.2364C23.6854 13.712 23.1851 14.1479 22.8388 14.5839C22.4924 14.9802 22.1846 15.4161 21.8767 15.9313V12.2853H13.6413L13.6798 13.5138C13.6798 14.3461 13.7183 16.8824 13.7183 21.1625C13.7183 25.4426 13.7183 30.9909 13.6798 37.8866H21.9152V23.6196C21.9152 22.7477 21.9921 22.0344 22.1846 21.5192C22.5309 20.6473 23.0697 19.8943 23.7624 19.2999C24.4551 18.7054 25.3402 18.428 26.4177 18.428C27.8416 18.428 28.9191 18.9432 29.5733 19.9736C30.266 21.004 30.5739 22.4307 30.5739 24.2141V37.8866H38.8093V23.2233C38.8477 19.4584 38.0011 16.605 36.2309 14.6631Z" fill="#FFC26B"/>
<path d="M4.98263 0C3.59724 0 2.48123 0.435935 1.6346 1.26817C0.749487 2.10041 0.326172 3.13081 0.326172 4.39898C0.326172 5.66716 0.749486 6.69755 1.59612 7.56942C2.44274 8.40166 3.52027 8.83759 4.90567 8.83759H4.94415C6.36803 8.83759 7.48404 8.40166 8.33067 7.56942C9.17729 6.73718 9.60061 5.66716 9.60061 4.39898C9.60061 3.13081 9.13881 2.06078 8.33067 1.22854C7.48404 0.435935 6.36803 0 4.98263 0Z" fill="#FFC26B"/>
</g>
<defs>
<clipPath id="clip0">
<rect width="38.5216" height="37.9263" fill="white" transform="translate(0.326172)"/>
</clipPath>
</defs>
</svg>
