<svg width="42" height="35" viewBox="0 0 42 35" fill="none" xmlns="http://www.w3.org/2000/svg">
<g clip-path="url(#clip0)">
<path d="M41.8712 4.5404C40.2404 5.2432 38.5688 5.69795 36.938 5.90466C38.8134 4.78845 40.0365 3.17615 40.7296 1.10909C39.0173 2.10128 37.1826 2.80408 35.2664 3.17615C33.554 1.35714 31.4747 0.447632 28.9877 0.447632C26.623 0.447632 24.5845 1.3158 22.9129 3.01078C21.2413 4.70577 20.3851 6.77282 20.3851 9.17061C20.3851 9.83207 20.4667 10.4935 20.589 11.155C17.0827 10.9896 13.7803 10.0801 10.7225 8.46781C7.66474 6.85551 5.05542 4.70577 2.89458 2.05994C2.11994 3.42419 1.71224 4.87113 1.71224 6.44209C1.71224 7.93038 2.0384 9.33597 2.7315 10.5762C3.4246 11.8578 4.36232 12.8913 5.5039 13.6768C4.1177 13.6355 2.81304 13.2634 1.6307 12.5606V12.6846C1.6307 14.793 2.28303 16.612 3.58768 18.2243C4.89234 19.7953 6.52316 20.8288 8.52092 21.2422C7.78705 21.4489 7.01241 21.5316 6.27854 21.5316C5.78929 21.5316 5.25928 21.4903 4.64772 21.4076C5.17773 23.1439 6.197 24.5908 7.66474 25.7071C9.13248 26.8233 10.8041 27.402 12.6795 27.4434C9.58095 29.9239 5.99315 31.1641 2.0384 31.1641C1.26376 31.1641 0.570664 31.1227 -0.0408936 31.0401C3.95462 33.6446 8.35784 34.9261 13.128 34.9261C16.1858 34.9261 19.0397 34.43 21.7306 33.4792C24.4214 32.487 26.7046 31.2054 28.58 29.5518C30.4555 27.8981 32.1271 25.9964 33.4725 23.888C34.8587 21.7383 35.8779 19.5059 36.5303 17.1908C37.1826 14.8757 37.5495 12.5192 37.5495 10.2041C37.5495 9.70804 37.5495 9.33597 37.5088 9.08793C39.2619 7.80635 40.6889 6.31807 41.8712 4.5404Z" fill="#FFC26B"/>
</g>
<defs>
<clipPath id="clip0">
<rect width="41.8713" height="34.4785" fill="white" transform="translate(0 0.447632)"/>
</clipPath>
</defs>
</svg>
